<svg width="31" height="31" viewBox="0 0 31 31" fill="none" xmlns="http://www.w3.org/2000/svg">
<path d="M15.5 31C6.95304 31 0 24.047 0 15.5C0 6.95304 6.95304 0 15.5 0C24.047 0 31 6.95304 31 15.5C31 24.047 24.047 31 15.5 31ZM15.5 2.58333C8.37775 2.58333 2.58333 8.37775 2.58333 15.5C2.58333 22.6222 8.37775 28.4167 15.5 28.4167C22.6222 28.4167 28.4167 22.6222 28.4167 15.5C28.4167 8.37775 22.6222 2.58333 15.5 2.58333ZM21.9583 15.5C21.9583 14.7857 21.381 14.2083 20.6667 14.2083H16.7917V7.75C16.7917 7.03571 16.213 6.45833 15.5 6.45833C14.787 6.45833 14.2083 7.03571 14.2083 7.75V15.5C14.2083 16.2143 14.787 16.7917 15.5 16.7917H20.6667C21.381 16.7917 21.9583 16.2143 21.9583 15.5Z" fill="black"/>
</svg>
