<svg width="31" height="31" viewBox="0 0 31 31" fill="none" xmlns="http://www.w3.org/2000/svg">
<path d="M15.5 0C6.95304 0 0 6.95304 0 15.5C0 24.047 6.95304 31 15.5 31C24.047 31 31 24.047 31 15.5C31 6.95304 24.047 0 15.5 0ZM15.5 28.4167C8.37775 28.4167 2.58333 22.6222 2.58333 15.5C2.58333 8.37775 8.37775 2.58333 15.5 2.58333C22.6222 2.58333 28.4167 8.37775 28.4167 15.5C28.4167 22.6222 22.6222 28.4167 15.5 28.4167ZM20.6667 18.0833C20.6667 20.2197 18.9281 21.9583 16.7917 21.9583V23.25C16.7917 23.9643 16.2143 24.5417 15.5 24.5417C14.7857 24.5417 14.2083 23.9643 14.2083 23.25V21.9583H13.8622C12.484 21.9583 11.1975 21.2169 10.5064 20.0221C10.1486 19.4034 10.3605 18.6142 10.9766 18.2577C11.5953 17.8973 12.3858 18.1117 12.741 18.7279C12.9722 19.1283 13.401 19.375 13.8609 19.375H16.7904C17.5034 19.375 18.082 18.7963 18.082 18.0833C18.082 17.5951 17.732 17.1817 17.2502 17.1017L13.3222 16.4468C11.5888 16.1587 10.332 14.6733 10.332 12.9167C10.332 10.7802 12.0706 9.04167 14.207 9.04167V7.75C14.207 7.037 14.7844 6.45833 15.4987 6.45833C16.213 6.45833 16.7904 7.037 16.7904 7.75V9.04167H17.1365C18.5147 9.04167 19.8012 9.78437 20.4923 10.9792C20.8501 11.5966 20.6383 12.3858 20.0221 12.7436C19.4021 13.1014 18.6129 12.8895 18.2577 12.2721C18.0265 11.873 17.5977 11.6263 17.1378 11.6263H14.2083C13.4953 11.6263 12.9167 12.2063 12.9167 12.918C12.9167 13.4062 13.2667 13.8195 13.7485 13.8996L17.6765 14.5545C19.4099 14.8425 20.6667 16.328 20.6667 18.0846V18.0833Z" fill="black"/>
</svg>
