<svg width="31" height="31" viewBox="0 0 31 31" fill="none" xmlns="http://www.w3.org/2000/svg">
<path d="M15.5 2.79258C19.6385 2.79258 20.1293 2.80808 21.7633 2.883C23.4528 2.9605 25.1927 3.34542 26.4236 4.57638C27.6662 5.81896 28.0395 7.54204 28.117 9.23671C28.1919 10.8707 28.2074 11.3615 28.2074 15.5C28.2074 19.6385 28.1919 20.1293 28.117 21.7633C28.0408 23.4438 27.6468 25.2004 26.4236 26.4236C25.181 27.6662 23.4592 28.0395 21.7633 28.117C20.1293 28.1919 19.6385 28.2074 15.5 28.2074C11.3615 28.2074 10.8707 28.1919 9.23671 28.117C7.56917 28.0408 5.78925 27.6378 4.57638 26.4236C3.34025 25.1875 2.9605 23.4476 2.883 21.7633C2.80808 20.1293 2.79258 19.6385 2.79258 15.5C2.79258 11.3615 2.80808 10.8707 2.883 9.23671C2.95921 7.56271 3.35704 5.79571 4.57638 4.57638C5.81637 3.33637 7.54592 2.9605 9.23671 2.883C10.8707 2.80808 11.3615 2.79258 15.5 2.79258ZM15.5 0C11.2905 0 10.7622 0.0180833 9.10883 0.093C6.71279 0.202792 4.33354 0.869292 2.60142 2.60142C0.862833 4.34 0.202792 6.71408 0.093 9.10883C0.0180833 10.7622 0 11.2905 0 15.5C0 19.7095 0.0180833 20.2378 0.093 21.8912C0.202792 24.2846 0.871875 26.6703 2.60142 28.3986C4.33871 30.1359 6.71667 30.7972 9.10883 30.907C10.7622 30.9819 11.2905 31 15.5 31C19.7095 31 20.2378 30.9819 21.8912 30.907C24.2859 30.7972 26.6677 30.1294 28.3986 28.3986C30.1385 26.6587 30.7972 24.2859 30.907 21.8912C30.9819 20.2378 31 19.7095 31 15.5C31 11.2905 30.9819 10.7622 30.907 9.10883C30.7972 6.71279 30.1294 4.33225 28.3986 2.60142C26.6639 0.866708 24.2795 0.2015 21.8912 0.093C20.2378 0.0180833 19.7095 0 15.5 0Z" fill="black"/>
<path d="M15.5 7.54102C11.1045 7.54102 7.54077 11.1047 7.54077 15.5003C7.54077 19.8958 11.1045 23.4595 15.5 23.4595C19.8956 23.4595 23.4593 19.8958 23.4593 15.5003C23.4593 11.1047 19.8956 7.54102 15.5 7.54102ZM15.5 20.6669C12.6467 20.6669 10.3334 18.3536 10.3334 15.5003C10.3334 12.647 12.6467 10.3336 15.5 10.3336C18.3533 10.3336 20.6667 12.647 20.6667 15.5003C20.6667 18.3536 18.3533 20.6669 15.5 20.6669Z" fill="black"/>
<path d="M23.7746 9.08572C24.8018 9.08572 25.6346 8.25297 25.6346 7.22572C25.6346 6.19847 24.8018 5.36572 23.7746 5.36572C22.7473 5.36572 21.9146 6.19847 21.9146 7.22572C21.9146 8.25297 22.7473 9.08572 23.7746 9.08572Z" fill="black"/>
</svg>
