<svg width="31" height="31" viewBox="0 0 31 31" fill="none" xmlns="http://www.w3.org/2000/svg">
<path fill-rule="evenodd" clip-rule="evenodd" d="M26.4847 4.50533C23.5696 1.60167 19.6941 0.00129167 15.5655 0C7.0579 0 0.133682 6.88975 0.129789 15.3605C0.128491 18.0678 0.839732 20.7106 2.19083 23.0407L0 31L8.18187 28.8636C10.4363 30.0881 12.975 30.7326 15.5578 30.7339H15.5642C24.0706 30.7339 30.9961 23.8429 31 15.3721C31.0026 11.2685 29.3984 7.40771 26.4847 4.50533ZM15.5655 28.139H15.5603C13.2579 28.139 11.0009 27.5228 9.03069 26.359L8.56215 26.0826L3.70676 27.3497L5.00335 22.6377L4.69835 22.1547C3.41344 20.1216 2.73594 17.772 2.73724 15.3605C2.73984 8.32092 8.49596 2.59367 15.572 2.59367C18.9984 2.59367 22.2198 3.92408 24.6417 6.33692C27.0635 8.75104 28.3964 11.9583 28.3951 15.3695C28.3912 22.4117 22.6364 28.139 15.5655 28.139ZM22.6027 18.5767C22.2172 18.3843 20.321 17.4556 19.9667 17.3277C19.6136 17.1998 19.3567 17.1352 19.0984 17.5189C18.8401 17.9025 18.1029 18.7679 17.8771 19.025C17.6525 19.2807 17.4267 19.313 17.0412 19.1205C16.6558 18.9281 15.4124 18.5238 13.9393 17.2153C12.7933 16.1975 12.0184 14.9407 11.7939 14.5558C11.5694 14.1709 11.7705 13.9642 11.9626 13.773C12.1365 13.6012 12.3481 13.3248 12.5415 13.1001C12.7362 12.8779 12.7997 12.7177 12.9295 12.4607C13.058 12.205 12.9944 11.9802 12.8971 11.7878C12.7997 11.5966 12.0288 9.70687 11.7082 8.93833C11.3954 8.18917 11.0775 8.29121 10.8399 8.27958C10.6154 8.26796 10.3584 8.26667 10.1001 8.26667C9.84316 8.26667 9.42524 8.36225 9.07222 8.74717C8.71919 9.13208 7.72242 10.0608 7.72242 11.9492C7.72242 13.8389 9.10467 15.664 9.29675 15.9198C9.48884 16.1755 12.0158 20.0531 15.8848 21.7155C16.805 22.1108 17.524 22.3471 18.0834 22.5241C19.0075 22.816 19.8486 22.7747 20.5131 22.6765C21.2542 22.5667 22.7948 21.7478 23.1166 20.8514C23.4385 19.955 23.4385 19.1851 23.3412 19.0262C23.2451 18.8648 22.9881 18.7692 22.6027 18.5767Z" fill="black"/>
</svg>
